<svg width="124" height="29" viewBox="0 0 124 29" fill="none" xmlns="http://www.w3.org/2000/svg">
<path d="M35.2886 13.0461L24.642 2.3995C23.0943 0.852189 21.0341 0 18.8403 0C16.6466 0 14.5863 0.852189 13.039 2.3995L8.27292 7.16521C8.10694 7.33118 8.10694 7.59982 8.27292 7.76539C8.43889 7.93136 8.70794 7.93136 8.8731 7.76539L13.6392 2.99967C15.0262 1.61305 16.873 0.848937 18.8399 0.848937C20.8068 0.848937 22.6545 1.61305 24.0415 2.99967L34.688 13.6462C36.0746 15.0324 36.8384 16.878 36.8384 18.8433C36.8384 20.8082 36.0746 22.6538 34.688 24.0404L33.7916 24.9368L30.8341 21.8783C31.4453 20.9823 31.7663 19.9394 31.7663 18.8392C31.7663 17.3991 31.2026 16.0429 30.1796 15.0215L27.1552 11.9922C26.9892 11.8266 26.7206 11.827 26.5546 11.9918C26.3886 12.1578 26.3886 12.4264 26.5538 12.5924L29.5786 15.6221C30.4413 16.4832 30.9169 17.6255 30.9169 18.8388C30.9169 19.8724 30.5813 20.8455 29.9463 21.6535C29.8152 21.8207 29.8274 22.0585 29.9747 22.211L33.4812 25.8373C33.5603 25.9188 33.6691 25.9659 33.7827 25.9667H33.7863C33.8988 25.9667 34.0067 25.9221 34.0866 25.8421L35.2886 24.641C36.8359 23.0941 37.6877 21.0354 37.6877 18.8437C37.6877 16.6512 36.8359 14.5926 35.2886 13.0461Z" fill="#00C2FF"/>
<path d="M5.53979 23.2969C4.38366 22.1411 3.74737 20.6024 3.74737 18.9646C3.74737 17.3267 4.38407 15.7884 5.53979 14.633L8.22942 11.9434C8.39539 11.7774 8.39539 11.5088 8.22942 11.3432C8.06345 11.1773 7.7944 11.1773 7.62924 11.3432L4.93961 14.0329C3.6236 15.3485 2.89844 17.1003 2.89844 18.9649C2.89844 20.8296 3.6232 22.581 4.93839 23.8962L6.74988 25.7235C6.83266 25.8071 6.94223 25.8493 7.05139 25.8493C7.15934 25.8493 7.26728 25.8084 7.35047 25.7264C7.51684 25.5612 7.51805 25.293 7.35289 25.1262L5.53979 23.2969Z" fill="#00C2FF"/>
<path d="M5.75423 26.2461C5.58867 26.2461 5.43202 26.2814 5.28959 26.3435L2.99967 24.0393C1.61305 22.6531 0.849333 20.8076 0.849333 18.8423C0.849333 16.8774 1.61305 15.0318 2.99967 13.6452L7.35998 9.28487L8.85049 10.7754C8.93002 10.8549 9.03837 10.8999 9.15077 10.8999C9.15199 10.8999 9.1528 10.8999 9.15361 10.8999C9.26683 10.8991 9.37558 10.8529 9.45471 10.7717L11.5247 8.64939L14.513 5.66108C16.9032 3.27092 20.7928 3.27092 23.1837 5.66108L32.1551 14.6325C33.3113 15.7882 33.9476 17.3262 33.9476 18.964C33.9476 20.0244 33.6753 21.0656 33.1607 21.9758C33.0451 22.18 33.1169 22.4389 33.321 22.5541C33.3867 22.5914 33.4586 22.6093 33.5296 22.6093C33.6777 22.6093 33.8214 22.5318 33.8993 22.3938C34.4861 21.3566 34.7961 20.1704 34.7961 18.964C34.7961 17.0993 34.0713 15.3479 32.7549 14.0319L23.7835 5.0605C21.0618 2.33921 16.6333 2.33921 13.912 5.0605L10.9201 8.05245C10.9192 8.05286 10.9192 8.05367 10.9184 8.05448C10.9176 8.0553 10.9164 8.05611 10.9164 8.05611L9.14671 9.87044L7.66027 8.384C7.4947 8.21803 7.22566 8.21803 7.06009 8.384L2.39908 13.0454C0.851768 14.5919 0 16.6509 0 18.8427C0 21.0344 0.851762 23.093 2.39826 24.6391L4.68739 26.9424C4.62368 27.0869 4.58674 27.2456 4.58674 27.4136C4.58674 28.0584 5.10942 28.581 5.75423 28.581C6.39905 28.581 6.92171 28.0584 6.92171 27.4136C6.92171 26.7687 6.39905 26.2461 5.75423 26.2461ZM5.75423 28.0011C5.43 28.0011 5.16664 27.7382 5.16664 27.4136C5.16664 27.0889 5.43 26.826 5.75423 26.826C6.07887 26.826 6.34183 27.0889 6.34183 27.4136C6.34183 27.7382 6.07887 28.0011 5.75423 28.0011Z" fill="#00C2FF"/>
<path d="M31.9202 26.2479C31.7538 26.2479 31.5968 26.2836 31.4536 26.3465L27.0579 21.9399L28.2579 20.7399C28.7659 20.2307 29.046 19.5558 29.046 18.84C29.046 18.1286 28.766 17.4578 28.2583 16.9514L25.2245 13.9124L24.3614 13.0269L25.9323 11.3433C26.0885 11.1757 26.084 10.9155 25.9225 10.7536L22.6676 7.49302C21.6352 6.47487 20.2787 5.91406 18.8474 5.91406C17.408 5.91406 16.0514 6.47771 15.028 7.50154L7.51301 15.017C6.48715 16.0363 5.92188 17.3958 5.92188 18.8436C5.92147 20.0712 6.31997 21.2253 7.07354 22.1805C7.0845 22.1943 7.09626 22.2073 7.10844 22.2199L9.05059 24.1377C9.21696 24.3025 9.4848 24.3004 9.64955 24.1353L11.5385 22.2386C11.7041 22.0722 11.7037 21.804 11.5381 21.6388L10.0342 20.1365C9.68851 19.7928 9.49818 19.3338 9.49818 18.8449C9.49818 18.3559 9.68932 17.8965 10.0379 17.5504L17.5562 10.0313C18.2424 9.34794 19.4537 9.34794 20.146 10.0297L22.278 12.1674C22.4436 12.3338 22.7126 12.3338 22.8782 12.1682C23.0446 12.0027 23.045 11.7336 22.879 11.5681L20.7445 9.42788C19.7122 8.41054 17.9778 8.41175 16.9564 9.43071L9.43853 16.949C8.92925 17.4546 8.64926 18.1278 8.64926 18.8453C8.64926 19.5619 8.92845 20.2343 9.43489 20.7383L10.6381 21.9407L9.34601 23.2376L7.72403 21.6359C7.10032 20.8357 6.7704 19.8715 6.7704 18.8453C6.77081 17.6246 7.24681 16.4799 8.11198 15.6196L15.6282 8.10335C16.4913 7.24021 17.6349 6.76462 18.8474 6.76462C20.0542 6.76462 21.199 7.23859 22.069 8.09645L25.0318 11.0649L23.4642 12.7445C23.3096 12.9105 23.3124 13.1681 23.4707 13.3309L27.6577 17.5532C28.0055 17.9002 28.1966 18.3575 28.1966 18.8416C28.1966 19.3314 28.0051 19.7932 27.6569 20.1418L26.1575 21.6412C25.9919 21.8068 25.9915 22.0754 26.1571 22.241L30.853 26.9479C30.7897 27.0915 30.7532 27.2498 30.7532 27.417C30.7532 28.0618 31.2758 28.5845 31.9206 28.5845C32.5654 28.5845 33.0881 28.0618 33.0881 27.417C33.0881 26.7721 32.565 26.2479 31.9202 26.2479ZM31.9202 28.0029C31.5956 28.0029 31.3326 27.74 31.3326 27.4153C31.3326 27.0907 31.5956 26.8277 31.9202 26.8277C32.2449 26.8277 32.5078 27.0907 32.5078 27.4153C32.5078 27.74 32.2449 28.0029 31.9202 28.0029Z" fill="#00C2FF"/>
<path d="M45.5338 10.3385C46.1943 10.3385 46.7771 10.4713 47.2821 10.7368C47.7872 10.9958 48.1789 11.3778 48.4574 11.8829C48.7423 12.3815 48.8848 12.9772 48.8848 13.6701V17.293H46.5925V15.9235H44.4362V17.293H42.1829V13.6701C42.1829 12.9772 42.3221 12.3815 42.6005 11.8829C42.8854 11.3778 43.2804 10.9958 43.7855 10.7368C44.2906 10.4713 44.8733 10.3385 45.5338 10.3385ZM46.5925 14.1946V13.4758C46.5925 13.0549 46.4921 12.7376 46.2914 12.5239C46.0972 12.3038 45.8381 12.1937 45.5144 12.1937C45.1906 12.1937 44.9284 12.3038 44.7276 12.5239C44.5334 12.7376 44.4362 13.0549 44.4362 13.4758V14.1946H46.5925ZM51.9442 17.3901C51.491 17.3901 51.0442 17.3415 50.6039 17.2444C50.1635 17.1473 49.8074 17.021 49.5354 16.8656L50.1376 15.4184C50.3837 15.5673 50.6751 15.6839 51.0118 15.768C51.3485 15.8522 51.6755 15.8943 51.9928 15.8943C52.2453 15.8943 52.4202 15.8749 52.5173 15.836C52.6209 15.7907 52.6727 15.726 52.6727 15.6418C52.6727 15.5576 52.608 15.4993 52.4784 15.4669C52.3554 15.4346 52.1514 15.4022 51.8665 15.3698C51.4327 15.318 51.0636 15.2533 50.7593 15.1756C50.4549 15.0914 50.1862 14.9327 49.9531 14.6996C49.7265 14.4665 49.6131 14.133 49.6131 13.6992C49.6131 13.356 49.7167 13.0484 49.924 12.7765C50.1312 12.5045 50.4387 12.2876 50.8467 12.1257C51.2611 11.9638 51.7565 11.8829 52.3328 11.8829C52.7342 11.8829 53.126 11.9217 53.508 11.9994C53.8965 12.0707 54.2268 12.1775 54.4987 12.32L53.8965 13.7672C53.4303 13.5082 52.9188 13.3787 52.3619 13.3787C51.8827 13.3787 51.6431 13.4629 51.6431 13.6312C51.6431 13.7154 51.7079 13.7769 51.8374 13.8158C51.9669 13.8481 52.1709 13.8805 52.4493 13.9129C52.8832 13.9647 53.249 14.0327 53.5469 14.1169C53.8512 14.201 54.1167 14.3597 54.3433 14.5928C54.5764 14.8259 54.693 15.1594 54.693 15.5932C54.693 15.9235 54.5894 16.2246 54.3822 16.4965C54.175 16.7685 53.8642 16.9854 53.4497 17.1473C53.0353 17.3092 52.5335 17.3901 51.9442 17.3901ZM55.3576 11.98H57.5528V17.293H55.3576V11.98ZM56.4552 11.5526C56.0602 11.5526 55.7397 11.449 55.4936 11.2418C55.254 11.0282 55.1342 10.7594 55.1342 10.4357C55.1342 10.1119 55.254 9.84642 55.4936 9.63921C55.7397 9.42553 56.0602 9.31868 56.4552 9.31868C56.8567 9.31868 57.1772 9.41905 57.4168 9.61978C57.6564 9.82052 57.7761 10.0795 57.7761 10.3968C57.7761 10.7335 57.6564 11.012 57.4168 11.2321C57.1772 11.4458 56.8567 11.5526 56.4552 11.5526ZM65.5578 11.8829C66.1989 11.8829 66.7104 12.0804 67.0925 12.4754C67.481 12.8704 67.6753 13.4661 67.6753 14.2625V17.293H65.4801V14.6413C65.4801 14.0327 65.2826 13.7283 64.8877 13.7283C64.6804 13.7283 64.5121 13.806 64.3826 13.9614C64.2596 14.1169 64.198 14.3629 64.198 14.6996V17.293H62.0029V14.6413C62.0029 14.0327 61.8054 13.7283 61.4104 13.7283C61.2032 13.7283 61.0349 13.806 60.9054 13.9614C60.7823 14.1169 60.7208 14.3629 60.7208 14.6996V17.293H58.5257V11.98H60.614V12.4754C61.009 12.0804 61.5108 11.8829 62.1195 11.8829C62.4756 11.8829 62.7961 11.9509 63.0811 12.0869C63.366 12.2164 63.5991 12.4171 63.7804 12.6891C63.9941 12.43 64.2531 12.2326 64.5574 12.0966C64.8618 11.9541 65.1952 11.8829 65.5578 11.8829ZM71.5294 17.3901C70.9401 17.3901 70.4092 17.2735 69.9365 17.0404C69.4702 16.8008 69.1044 16.4738 68.8389 16.0594C68.5734 15.6385 68.4407 15.1626 68.4407 14.6316C68.4407 14.1007 68.5734 13.628 68.8389 13.2136C69.1044 12.7927 69.4702 12.4657 69.9365 12.2326C70.4092 11.9994 70.9401 11.8829 71.5294 11.8829C72.1251 11.8829 72.6561 11.9994 73.1223 12.2326C73.595 12.4657 73.9608 12.7927 74.2198 13.2136C74.4853 13.628 74.6181 14.1007 74.6181 14.6316C74.6181 15.1626 74.4853 15.6385 74.2198 16.0594C73.9608 16.4738 73.595 16.8008 73.1223 17.0404C72.6561 17.2735 72.1251 17.3901 71.5294 17.3901ZM71.5294 15.6806C71.7819 15.6806 71.9891 15.59 72.151 15.4087C72.3129 15.2209 72.3938 14.9619 72.3938 14.6316C72.3938 14.3014 72.3129 14.0456 72.151 13.8643C71.9891 13.683 71.7819 13.5924 71.5294 13.5924C71.2768 13.5924 71.0696 13.683 70.9077 13.8643C70.7459 14.0456 70.6649 14.3014 70.6649 14.6316C70.6649 14.9619 70.7459 15.2209 70.9077 15.4087C71.0696 15.59 71.2768 15.6806 71.5294 15.6806ZM81.078 11.98L78.9411 17.293H76.6683L74.5315 11.98H76.7849L77.8533 14.8259L78.9994 11.98H81.078Z" fill="white"/>
<path d="M87.5929 17.293L85.9709 15.0202C85.7313 15.0525 85.5111 15.0687 85.3104 15.0687H83.3678V17.293H82.8725V10.4939H85.3104C86.1651 10.4939 86.8353 10.6979 87.321 11.1059C87.8066 11.5073 88.0494 12.0674 88.0494 12.7862C88.0494 13.3236 87.9102 13.7769 87.6318 14.146C87.3598 14.5086 86.9681 14.7644 86.4565 14.9133L88.1563 17.293H87.5929ZM85.3104 14.6316C86.0356 14.6316 86.5893 14.473 86.9713 14.1557C87.3534 13.8319 87.5444 13.3754 87.5444 12.7862C87.5444 12.1969 87.3534 11.7437 86.9713 11.4264C86.5893 11.1026 86.0356 10.9407 85.3104 10.9407H83.3678V14.6316H85.3104ZM91.6891 17.3318C91.21 17.3318 90.7761 17.2217 90.3876 17.0016C90.0056 16.7814 89.7045 16.4771 89.4843 16.0886C89.2641 15.6936 89.1541 15.25 89.1541 14.7579C89.1541 14.2658 89.2641 13.8255 89.4843 13.437C89.7045 13.042 90.0056 12.7344 90.3876 12.5142C90.7761 12.2941 91.21 12.184 91.6891 12.184C92.1683 12.184 92.5989 12.2941 92.9809 12.5142C93.3695 12.7344 93.6738 13.042 93.8939 13.437C94.1141 13.8255 94.2242 14.2658 94.2242 14.7579C94.2242 15.25 94.1141 15.6936 93.8939 16.0886C93.6738 16.4771 93.3695 16.7814 92.9809 17.0016C92.5989 17.2217 92.1683 17.3318 91.6891 17.3318ZM91.6891 16.8947C92.0776 16.8947 92.4241 16.8041 92.7284 16.6228C93.0392 16.4415 93.282 16.1889 93.4569 15.8652C93.6382 15.5414 93.7288 15.1723 93.7288 14.7579C93.7288 14.3435 93.6382 13.9744 93.4569 13.6506C93.282 13.3269 93.0392 13.0743 92.7284 12.893C92.4241 12.7117 92.0776 12.6211 91.6891 12.6211C91.3006 12.6211 90.9509 12.7117 90.6401 12.893C90.3358 13.0743 90.093 13.3269 89.9117 13.6506C89.7368 13.9744 89.6494 14.3435 89.6494 14.7579C89.6494 15.1723 89.7368 15.5414 89.9117 15.8652C90.093 16.1889 90.3358 16.4415 90.6401 16.6228C90.9509 16.8041 91.3006 16.8947 91.6891 16.8947ZM98.2756 12.184C98.7483 12.184 99.1757 12.2941 99.5577 12.5142C99.9397 12.7279 100.238 13.0322 100.451 13.4272C100.671 13.8158 100.782 14.2593 100.782 14.7579C100.782 15.2565 100.671 15.7001 100.451 16.0886C100.238 16.4771 99.9397 16.7814 99.5577 17.0016C99.1757 17.2217 98.7483 17.3318 98.2756 17.3318C97.8223 17.3318 97.4112 17.225 97.0421 17.0113C96.6794 16.7911 96.3978 16.4868 96.197 16.0983V17.293H95.7308V10.086H96.2165V13.3787C96.4172 13.0031 96.6989 12.7117 97.0615 12.5045C97.4241 12.2908 97.8288 12.184 98.2756 12.184ZM98.2465 16.8947C98.635 16.8947 98.9846 16.8041 99.2955 16.6228C99.6063 16.4415 99.8491 16.1889 100.024 15.8652C100.205 15.5414 100.296 15.1723 100.296 14.7579C100.296 14.3435 100.205 13.9744 100.024 13.6506C99.8491 13.3269 99.6063 13.0743 99.2955 12.893C98.9846 12.7117 98.635 12.6211 98.2465 12.6211C97.8579 12.6211 97.5083 12.7117 97.1975 12.893C96.8931 13.0743 96.6503 13.3269 96.469 13.6506C96.2942 13.9744 96.2068 14.3435 96.2068 14.7579C96.2068 15.1723 96.2942 15.5414 96.469 15.8652C96.6503 16.1889 96.8931 16.4415 97.1975 16.6228C97.5083 16.8041 97.8579 16.8947 98.2465 16.8947ZM104.267 17.3318C103.787 17.3318 103.354 17.2217 102.965 17.0016C102.583 16.7814 102.282 16.4771 102.062 16.0886C101.842 15.6936 101.731 15.25 101.731 14.7579C101.731 14.2658 101.842 13.8255 102.062 13.437C102.282 13.042 102.583 12.7344 102.965 12.5142C103.354 12.2941 103.787 12.184 104.267 12.184C104.746 12.184 105.176 12.2941 105.558 12.5142C105.947 12.7344 106.251 13.042 106.471 13.437C106.692 13.8255 106.802 14.2658 106.802 14.7579C106.802 15.25 106.692 15.6936 106.471 16.0886C106.251 16.4771 105.947 16.7814 105.558 17.0016C105.176 17.2217 104.746 17.3318 104.267 17.3318ZM104.267 16.8947C104.655 16.8947 105.002 16.8041 105.306 16.6228C105.617 16.4415 105.859 16.1889 106.034 15.8652C106.216 15.5414 106.306 15.1723 106.306 14.7579C106.306 14.3435 106.216 13.9744 106.034 13.6506C105.859 13.3269 105.617 13.0743 105.306 12.893C105.002 12.7117 104.655 12.6211 104.267 12.6211C103.878 12.6211 103.528 12.7117 103.218 12.893C102.913 13.0743 102.67 13.3269 102.489 13.6506C102.314 13.9744 102.227 14.3435 102.227 14.7579C102.227 15.1723 102.314 15.5414 102.489 15.8652C102.67 16.1889 102.913 16.4415 103.218 16.6228C103.528 16.8041 103.878 16.8947 104.267 16.8947ZM110.668 16.9724C110.545 17.089 110.39 17.1797 110.202 17.2444C110.021 17.3027 109.83 17.3318 109.629 17.3318C109.189 17.3318 108.849 17.212 108.609 16.9724C108.37 16.7264 108.25 16.3864 108.25 15.9526V11.1156H108.736V12.2228H110.348V12.6405H108.736V15.904C108.736 16.2343 108.813 16.4868 108.969 16.6616C109.131 16.83 109.367 16.9142 109.678 16.9142C109.995 16.9142 110.257 16.8203 110.465 16.6325L110.668 16.9724ZM112.017 12.2228H112.503V17.293H112.017V12.2228ZM112.26 10.9893C112.15 10.9893 112.056 10.9537 111.978 10.8825C111.9 10.8048 111.862 10.7109 111.862 10.6008C111.862 10.4907 111.9 10.3968 111.978 10.3191C112.056 10.2414 112.15 10.2026 112.26 10.2026C112.37 10.2026 112.464 10.2414 112.541 10.3191C112.619 10.3903 112.658 10.481 112.658 10.5911C112.658 10.7012 112.619 10.795 112.541 10.8727C112.464 10.9505 112.37 10.9893 112.26 10.9893ZM116.56 17.3318C116.068 17.3318 115.628 17.2217 115.239 17.0016C114.851 16.7814 114.546 16.4771 114.326 16.0886C114.106 15.6936 113.996 15.25 113.996 14.7579C113.996 14.2593 114.106 13.8158 114.326 13.4272C114.546 13.0322 114.851 12.7279 115.239 12.5142C115.628 12.2941 116.068 12.184 116.56 12.184C116.968 12.184 117.337 12.2649 117.667 12.4268C118.004 12.5822 118.276 12.8121 118.483 13.1164L118.124 13.3787C117.943 13.1261 117.716 12.9384 117.444 12.8153C117.179 12.6858 116.884 12.6211 116.56 12.6211C116.165 12.6211 115.809 12.7117 115.492 12.893C115.181 13.0679 114.935 13.3172 114.754 13.6409C114.579 13.9647 114.491 14.337 114.491 14.7579C114.491 15.1788 114.579 15.5511 114.754 15.8749C114.935 16.1986 115.181 16.4512 115.492 16.6325C115.809 16.8073 116.165 16.8947 116.56 16.8947C116.884 16.8947 117.179 16.8332 117.444 16.7102C117.716 16.5807 117.943 16.3897 118.124 16.1371L118.483 16.3994C118.276 16.7037 118.004 16.9368 117.667 17.0987C117.337 17.2541 116.968 17.3318 116.56 17.3318ZM121.219 17.3318C120.811 17.3318 120.423 17.2703 120.054 17.1473C119.685 17.0242 119.396 16.8688 119.189 16.6811L119.413 16.2925C119.62 16.4674 119.885 16.6131 120.209 16.7296C120.539 16.8462 120.883 16.9045 121.239 16.9045C121.75 16.9045 122.126 16.8203 122.365 16.6519C122.611 16.4836 122.734 16.2505 122.734 15.9526C122.734 15.7389 122.666 15.5705 122.531 15.4475C122.401 15.3245 122.239 15.2338 122.045 15.1756C121.851 15.1173 121.582 15.0558 121.239 14.991C120.837 14.9198 120.513 14.8421 120.267 14.7579C120.021 14.6737 119.811 14.5377 119.636 14.35C119.461 14.1622 119.374 13.9032 119.374 13.5729C119.374 13.1715 119.539 12.8412 119.869 12.5822C120.206 12.3167 120.682 12.184 121.297 12.184C121.621 12.184 121.941 12.2293 122.259 12.32C122.576 12.4106 122.835 12.5304 123.036 12.6793L122.812 13.0679C122.605 12.9189 122.369 12.8056 122.103 12.7279C121.838 12.6502 121.566 12.6114 121.287 12.6114C120.815 12.6114 120.458 12.6988 120.219 12.8736C119.979 13.0484 119.859 13.2783 119.859 13.5632C119.859 13.7899 119.927 13.9679 120.063 14.0974C120.199 14.2205 120.365 14.3143 120.559 14.3791C120.76 14.4374 121.038 14.5021 121.394 14.5734C121.789 14.6446 122.106 14.7223 122.346 14.8065C122.592 14.8842 122.799 15.0137 122.968 15.195C123.136 15.3763 123.22 15.6256 123.22 15.9429C123.22 16.3638 123.045 16.7005 122.696 16.953C122.346 17.2056 121.854 17.3318 121.219 17.3318Z" fill="white"/>
</svg>
