<svg width="83" height="41" viewBox="0 0 83 41" fill="none" xmlns="http://www.w3.org/2000/svg">
<path d="M57.023 13.0461L46.3764 2.3995C44.8287 0.852189 42.7685 0 40.5747 0C38.381 0 36.3207 0.852189 34.7734 2.3995L30.0073 7.16521C29.8413 7.33118 29.8413 7.59982 30.0073 7.76539C30.1733 7.93136 30.4423 7.93136 30.6075 7.76539L35.3736 2.99967C36.7606 1.61305 38.6074 0.848937 40.5743 0.848937C42.5412 0.848937 44.3888 1.61305 45.7758 2.99967L56.4224 13.6462C57.809 15.0324 58.5727 16.878 58.5727 18.8433C58.5727 20.8082 57.809 22.6538 56.4224 24.0404L55.526 24.9368L52.5685 21.8783C53.1797 20.9823 53.5006 19.9394 53.5006 18.8392C53.5006 17.3991 52.937 16.0429 51.914 15.0215L48.8896 11.9922C48.7236 11.8266 48.4549 11.827 48.289 11.9918C48.123 12.1578 48.123 12.4264 48.2881 12.5924L51.313 15.6221C52.1757 16.4832 52.6513 17.6255 52.6513 18.8388C52.6513 19.8724 52.3157 20.8455 51.6806 21.6535C51.5496 21.8207 51.5617 22.0585 51.709 22.211L55.2156 25.8373C55.2947 25.9188 55.4034 25.9659 55.5171 25.9667H55.5207C55.6331 25.9667 55.7411 25.9221 55.821 25.8421L57.023 24.641C58.5703 23.0941 59.4221 21.0354 59.4221 18.8437C59.4221 16.6512 58.5703 14.5926 57.023 13.0461Z" fill="#004387"/>
<path d="M27.2742 23.2969C26.118 22.1411 25.4817 20.6024 25.4817 18.9646C25.4817 17.3267 26.1184 15.7884 27.2742 14.633L29.9638 11.9434C30.1298 11.7774 30.1298 11.5088 29.9638 11.3432C29.7978 11.1773 29.5288 11.1773 29.3636 11.3432L26.674 14.0329C25.358 15.3485 24.6328 17.1003 24.6328 18.9649C24.6328 20.8296 25.3576 22.581 26.6728 23.8962L28.4843 25.7235C28.567 25.8071 28.6766 25.8493 28.7858 25.8493C28.8937 25.8493 29.0017 25.8084 29.0848 25.7264C29.2512 25.5612 29.2524 25.293 29.0873 25.1262L27.2742 23.2969Z" fill="#004387"/>
<path d="M27.4886 26.2461C27.323 26.2461 27.1664 26.2814 27.024 26.3435L24.734 24.0393C23.3474 22.6531 22.5837 20.8076 22.5837 18.8423C22.5837 16.8774 23.3474 15.0318 24.734 13.6452L29.0944 9.28487L30.5849 10.7754C30.6644 10.8549 30.7727 10.8999 30.8851 10.8999C30.8864 10.8999 30.8872 10.8999 30.888 10.8999C31.0012 10.8991 31.11 10.8529 31.1891 10.7717L33.2591 8.64939L36.2474 5.66108C38.6375 3.27092 42.5271 3.27092 44.9181 5.66108L53.8895 14.6325C55.0456 15.7882 55.6819 17.3262 55.6819 18.964C55.6819 20.0244 55.4096 21.0656 54.8951 21.9758C54.7794 22.18 54.8513 22.4389 55.0554 22.5541C55.1211 22.5914 55.1929 22.6093 55.264 22.6093C55.4121 22.6093 55.5557 22.5318 55.6336 22.3938C56.2204 21.3566 56.5305 20.1704 56.5305 18.964C56.5305 17.0993 55.8057 15.3479 54.4893 14.0319L45.5179 5.0605C42.7962 2.33921 38.3677 2.33921 35.6464 5.0605L32.6544 8.05245C32.6536 8.05286 32.6536 8.05367 32.6528 8.05448C32.652 8.0553 32.6508 8.05611 32.6508 8.05611L30.8811 9.87044L29.3946 8.384C29.2291 8.21803 28.96 8.21803 28.7945 8.384L24.1335 13.0454C22.5861 14.5919 21.7344 16.6509 21.7344 18.8427C21.7344 21.0344 22.5861 23.093 24.1326 24.6391L26.4218 26.9424C26.3581 27.0869 26.3211 27.2456 26.3211 27.4136C26.3211 28.0584 26.8438 28.581 27.4886 28.581C28.1334 28.581 28.6561 28.0584 28.6561 27.4136C28.6561 26.7687 28.1334 26.2461 27.4886 26.2461ZM27.4886 28.0011C27.1644 28.0011 26.901 27.7382 26.901 27.4136C26.901 27.0889 27.1644 26.826 27.4886 26.826C27.8132 26.826 28.0762 27.0889 28.0762 27.4136C28.0762 27.7382 27.8132 28.0011 27.4886 28.0011Z" fill="#004387"/>
<path d="M53.6546 26.2479C53.4882 26.2479 53.3312 26.2836 53.1879 26.3465L48.7923 21.9399L49.9923 20.7399C50.5003 20.2307 50.7803 19.5558 50.7803 18.84C50.7803 18.1286 50.5003 17.4578 49.9927 16.9514L46.9589 13.9124L46.0958 13.0269L47.6666 11.3433C47.8229 11.1757 47.8184 10.9155 47.6569 10.7536L44.402 7.49302C43.3696 6.47487 42.013 5.91406 40.5818 5.91406C39.1424 5.91406 37.7858 6.47771 36.7624 7.50154L29.2474 15.017C28.2215 16.0363 27.6563 17.3958 27.6563 18.8436C27.6558 20.0712 28.0543 21.2253 28.8079 22.1805C28.8189 22.1943 28.8306 22.2073 28.8428 22.2199L30.785 24.1377C30.9513 24.3025 31.2192 24.3004 31.3839 24.1353L33.2729 22.2386C33.4385 22.0722 33.4381 21.804 33.2725 21.6388L31.7686 20.1365C31.4229 19.7928 31.2326 19.3338 31.2326 18.8449C31.2326 18.3559 31.4237 17.8965 31.7723 17.5504L39.2905 10.0313C39.9767 9.34794 41.188 9.34794 41.8803 10.0297L44.0124 12.1674C44.178 12.3338 44.447 12.3338 44.6126 12.1682C44.779 12.0027 44.7794 11.7336 44.6134 11.5681L42.4789 9.42788C41.4465 8.41054 39.7121 8.41175 38.6907 9.43071L31.1729 16.949C30.6636 17.4546 30.3836 18.1278 30.3836 18.8453C30.3836 19.5619 30.6628 20.2343 31.1693 20.7383L32.3725 21.9407L31.0804 23.2376L29.4584 21.6359C28.8347 20.8357 28.5048 19.8715 28.5048 18.8453C28.5052 17.6246 28.9812 16.4799 29.8464 15.6196L37.3626 8.10335C38.2257 7.24021 39.3692 6.76462 40.5818 6.76462C41.7886 6.76462 42.9334 7.23859 43.8034 8.09645L46.7662 11.0649L45.1986 12.7445C45.0439 12.9105 45.0468 13.1681 45.205 13.3309L49.3921 17.5532C49.7399 17.9002 49.931 18.3575 49.931 18.8416C49.931 19.3314 49.7395 19.7932 49.3913 20.1418L47.8918 21.6412C47.7263 21.8068 47.7259 22.0754 47.8914 22.241L52.5874 26.9479C52.5241 27.0915 52.4875 27.2498 52.4875 27.417C52.4875 28.0618 53.0102 28.5845 53.655 28.5845C54.2998 28.5845 54.8225 28.0618 54.8225 27.417C54.8225 26.7721 54.2994 26.2479 53.6546 26.2479ZM53.6546 28.0029C53.33 28.0029 53.067 27.74 53.067 27.4153C53.067 27.0907 53.33 26.8277 53.6546 26.8277C53.9792 26.8277 54.2422 27.0907 54.2422 27.4153C54.2422 27.74 53.9792 28.0029 53.6546 28.0029Z" fill="#004387"/>
<path d="M3.84631 30.6296C4.50678 30.6296 5.08956 30.7623 5.59463 31.0278C6.0997 31.2868 6.49145 31.6688 6.76989 32.1739C7.0548 32.6725 7.19725 33.2682 7.19725 33.9611V37.584H4.90501V36.2145H2.74875V37.584H0.495357V33.9611C0.495357 33.2682 0.634576 32.6725 0.913012 32.1739C1.19792 31.6688 1.59291 31.2868 2.09798 31.0278C2.60305 30.7623 3.18583 30.6296 3.84631 30.6296ZM4.90501 34.4856V33.7668C4.90501 33.3459 4.80464 33.0286 4.60391 32.815C4.40965 32.5948 4.15064 32.4847 3.82688 32.4847C3.50312 32.4847 3.24087 32.5948 3.04014 32.815C2.84588 33.0286 2.74875 33.3459 2.74875 33.7668V34.4856H4.90501ZM10.2567 37.6811C9.80347 37.6811 9.35668 37.6325 8.91636 37.5354C8.47604 37.4383 8.1199 37.312 7.84794 37.1566L8.45014 35.7094C8.6962 35.8583 8.98759 35.9749 9.3243 36.0591C9.66101 36.1432 9.98801 36.1853 10.3053 36.1853C10.5578 36.1853 10.7327 36.1659 10.8298 36.1271C10.9334 36.0817 10.9852 36.017 10.9852 35.9328C10.9852 35.8486 10.9205 35.7903 10.7909 35.758C10.6679 35.7256 10.4639 35.6932 10.179 35.6608C9.74519 35.609 9.3761 35.5443 9.07177 35.4666C8.76743 35.3824 8.4987 35.2238 8.2656 34.9906C8.03896 34.7575 7.92564 34.4241 7.92564 33.9902C7.92564 33.647 8.02925 33.3395 8.23646 33.0675C8.44366 32.7955 8.75124 32.5786 9.15918 32.4167C9.5736 32.2548 10.069 32.1739 10.6453 32.1739C11.0467 32.1739 11.4385 32.2128 11.8205 32.2905C12.209 32.3617 12.5393 32.4685 12.8112 32.611L12.209 34.0582C11.7428 33.7992 11.2313 33.6697 10.6744 33.6697C10.1952 33.6697 9.95564 33.7539 9.95564 33.9222C9.95564 34.0064 10.0204 34.0679 10.1499 34.1068C10.2794 34.1391 10.4834 34.1715 10.7618 34.2039C11.1957 34.2557 11.5615 34.3237 11.8594 34.4079C12.1637 34.492 12.4292 34.6507 12.6558 34.8838C12.8889 35.1169 13.0055 35.4504 13.0055 35.8842C13.0055 36.2145 12.9019 36.5156 12.6947 36.7875C12.4875 37.0595 12.1767 37.2764 11.7622 37.4383C11.3478 37.6002 10.846 37.6811 10.2567 37.6811ZM13.6701 32.271H15.8653V37.584H13.6701V32.271ZM14.7677 31.8437C14.3727 31.8437 14.0522 31.7401 13.8061 31.5329C13.5665 31.3192 13.4467 31.0504 13.4467 30.7267C13.4467 30.4029 13.5665 30.1374 13.8061 29.9302C14.0522 29.7165 14.3727 29.6097 14.7677 29.6097C15.1692 29.6097 15.4897 29.7101 15.7293 29.9108C15.9689 30.1115 16.0886 30.3705 16.0886 30.6878C16.0886 31.0245 15.9689 31.303 15.7293 31.5231C15.4897 31.7368 15.1692 31.8437 14.7677 31.8437ZM23.8703 32.1739C24.5114 32.1739 25.0229 32.3714 25.405 32.7664C25.7935 33.1614 25.9878 33.7571 25.9878 34.5536V37.584H23.7926V34.9324C23.7926 34.3237 23.5951 34.0194 23.2002 34.0194C22.9929 34.0194 22.8246 34.0971 22.6951 34.2525C22.5721 34.4079 22.5105 34.6539 22.5105 34.9906V37.584H20.3154V34.9324C20.3154 34.3237 20.1179 34.0194 19.7229 34.0194C19.5157 34.0194 19.3474 34.0971 19.2179 34.2525C19.0948 34.4079 19.0333 34.6539 19.0333 34.9906V37.584H16.8382V32.271H18.9265V32.7664C19.3215 32.3714 19.8233 32.1739 20.432 32.1739C20.7881 32.1739 21.1086 32.2419 21.3936 32.3779C21.6785 32.5074 21.9116 32.7081 22.0929 32.9801C22.3066 32.7211 22.5656 32.5236 22.8699 32.3876C23.1743 32.2451 23.5077 32.1739 23.8703 32.1739ZM29.8419 37.6811C29.2526 37.6811 28.7217 37.5646 28.249 37.3314C27.7827 37.0919 27.4169 36.7649 27.1514 36.3504C26.8859 35.9296 26.7532 35.4536 26.7532 34.9227C26.7532 34.3917 26.8859 33.919 27.1514 33.5046C27.4169 33.0837 27.7827 32.7567 28.249 32.5236C28.7217 32.2905 29.2526 32.1739 29.8419 32.1739C30.4376 32.1739 30.9686 32.2905 31.4348 32.5236C31.9075 32.7567 32.2733 33.0837 32.5323 33.5046C32.7978 33.919 32.9306 34.3917 32.9306 34.9227C32.9306 35.4536 32.7978 35.9296 32.5323 36.3504C32.2733 36.7649 31.9075 37.0919 31.4348 37.3314C30.9686 37.5646 30.4376 37.6811 29.8419 37.6811ZM29.8419 35.9716C30.0944 35.9716 30.3016 35.881 30.4635 35.6997C30.6254 35.5119 30.7063 35.2529 30.7063 34.9227C30.7063 34.5924 30.6254 34.3366 30.4635 34.1553C30.3016 33.974 30.0944 33.8834 29.8419 33.8834C29.5893 33.8834 29.3821 33.974 29.2202 34.1553C29.0584 34.3366 28.9774 34.5924 28.9774 34.9227C28.9774 35.2529 29.0584 35.5119 29.2202 35.6997C29.3821 35.881 29.5893 35.9716 29.8419 35.9716ZM39.3905 32.271L37.2536 37.584H34.9808L32.844 32.271H35.0974L36.1658 35.1169L37.3119 32.271H39.3905Z" fill="black"/>
<path d="M45.75 37.584L44.196 35.3986C44.0211 35.418 43.8398 35.4277 43.652 35.4277H41.826V37.584H41.1073V30.785H43.652C44.5197 30.785 45.1996 30.9922 45.6918 31.4066C46.1839 31.821 46.4299 32.3908 46.4299 33.1161C46.4299 33.647 46.294 34.0971 46.022 34.4661C45.7565 34.8288 45.3745 35.091 44.8759 35.2529L46.5368 37.584H45.75ZM43.6326 34.8158C44.306 34.8158 44.8208 34.6669 45.177 34.369C45.5331 34.0712 45.7112 33.6535 45.7112 33.1161C45.7112 32.5657 45.5331 32.1448 45.177 31.8534C44.8208 31.5555 44.306 31.4066 43.6326 31.4066H41.826V34.8158H43.6326ZM50.0689 37.6325C49.5768 37.6325 49.1333 37.5225 48.7383 37.3023C48.3433 37.0757 48.0325 36.7649 47.8058 36.3699C47.5792 35.9749 47.4659 35.5281 47.4659 35.0295C47.4659 34.5309 47.5792 34.0841 47.8058 33.6891C48.0325 33.2941 48.3433 32.9865 48.7383 32.7664C49.1333 32.5462 49.5768 32.4362 50.0689 32.4362C50.561 32.4362 51.0046 32.5462 51.3996 32.7664C51.7946 32.9865 52.1022 33.2941 52.3223 33.6891C52.549 34.0841 52.6623 34.5309 52.6623 35.0295C52.6623 35.5281 52.549 35.9749 52.3223 36.3699C52.1022 36.7649 51.7946 37.0757 51.3996 37.3023C51.0046 37.5225 50.561 37.6325 50.0689 37.6325ZM50.0689 37.0206C50.4315 37.0206 50.7553 36.9397 51.0402 36.7778C51.3316 36.6095 51.5582 36.3731 51.7201 36.0688C51.882 35.7644 51.9629 35.418 51.9629 35.0295C51.9629 34.641 51.882 34.2946 51.7201 33.9902C51.5582 33.6859 51.3316 33.4528 51.0402 33.2909C50.7553 33.1225 50.4315 33.0384 50.0689 33.0384C49.7063 33.0384 49.3793 33.1225 49.0879 33.2909C48.803 33.4528 48.5764 33.6859 48.408 33.9902C48.2461 34.2946 48.1652 34.641 48.1652 35.0295C48.1652 35.418 48.2461 35.7644 48.408 36.0688C48.5764 36.3731 48.803 36.6095 49.0879 36.7778C49.3793 36.9397 49.7063 37.0206 50.0689 37.0206ZM56.7024 32.4362C57.1815 32.4362 57.6154 32.5462 58.0039 32.7664C58.3924 32.9801 58.6968 33.2844 58.9169 33.6794C59.1371 34.0744 59.2472 34.5244 59.2472 35.0295C59.2472 35.5346 59.1371 35.9846 58.9169 36.3796C58.6968 36.7746 58.3924 37.0822 58.0039 37.3023C57.6154 37.5225 57.1815 37.6325 56.7024 37.6325C56.275 37.6325 55.8897 37.5419 55.5465 37.3606C55.2098 37.1793 54.9379 36.917 54.7307 36.5738V37.584H54.0702V30.377H54.7598V33.4463C54.9735 33.1161 55.2454 32.8668 55.5757 32.6984C55.9124 32.5236 56.288 32.4362 56.7024 32.4362ZM56.6538 37.0206C57.01 37.0206 57.3337 36.9397 57.6251 36.7778C57.9165 36.6095 58.1431 36.3731 58.305 36.0688C58.4734 35.7644 58.5575 35.418 58.5575 35.0295C58.5575 34.641 58.4734 34.2946 58.305 33.9902C58.1431 33.6859 57.9165 33.4528 57.6251 33.2909C57.3337 33.1225 57.01 33.0384 56.6538 33.0384C56.2912 33.0384 55.9642 33.1225 55.6728 33.2909C55.3879 33.4528 55.1613 33.6859 54.9929 33.9902C54.831 34.2946 54.7501 34.641 54.7501 35.0295C54.7501 35.418 54.831 35.7644 54.9929 36.0688C55.1613 36.3731 55.3879 36.6095 55.6728 36.7778C55.9642 36.9397 56.2912 37.0206 56.6538 37.0206ZM62.7412 37.6325C62.2491 37.6325 61.8055 37.5225 61.4106 37.3023C61.0156 37.0757 60.7047 36.7649 60.4781 36.3699C60.2515 35.9749 60.1382 35.5281 60.1382 35.0295C60.1382 34.5309 60.2515 34.0841 60.4781 33.6891C60.7047 33.2941 61.0156 32.9865 61.4106 32.7664C61.8055 32.5462 62.2491 32.4362 62.7412 32.4362C63.2333 32.4362 63.6769 32.5462 64.0719 32.7664C64.4669 32.9865 64.7745 33.2941 64.9946 33.6891C65.2212 34.0841 65.3346 34.5309 65.3346 35.0295C65.3346 35.5281 65.2212 35.9749 64.9946 36.3699C64.7745 36.7649 64.4669 37.0757 64.0719 37.3023C63.6769 37.5225 63.2333 37.6325 62.7412 37.6325ZM62.7412 37.0206C63.1038 37.0206 63.4276 36.9397 63.7125 36.7778C64.0039 36.6095 64.2305 36.3731 64.3924 36.0688C64.5543 35.7644 64.6352 35.418 64.6352 35.0295C64.6352 34.641 64.5543 34.2946 64.3924 33.9902C64.2305 33.6859 64.0039 33.4528 63.7125 33.2909C63.4276 33.1225 63.1038 33.0384 62.7412 33.0384C62.3786 33.0384 62.0516 33.1225 61.7602 33.2909C61.4753 33.4528 61.2487 33.6859 61.0803 33.9902C60.9184 34.2946 60.8375 34.641 60.8375 35.0295C60.8375 35.418 60.9184 35.7644 61.0803 36.0688C61.2487 36.3731 61.4753 36.6095 61.7602 36.7778C62.0516 36.9397 62.3786 37.0206 62.7412 37.0206ZM69.2581 37.2732C69.1286 37.3897 68.97 37.4804 68.7822 37.5451C68.5944 37.6034 68.3969 37.6325 68.1897 37.6325C67.7105 37.6325 67.3414 37.503 67.0824 37.244C66.8234 36.985 66.6939 36.6192 66.6939 36.1465V31.358H67.3835V32.475H68.9279V33.0578H67.3835V36.1076C67.3835 36.412 67.458 36.6451 67.6069 36.807C67.7559 36.9624 67.9728 37.0401 68.2577 37.0401C68.5685 37.0401 68.821 36.9526 69.0153 36.7778L69.2581 37.2732ZM70.5081 32.475H71.1977V37.584H70.5081V32.475ZM70.8578 31.358C70.7153 31.358 70.5955 31.3095 70.4984 31.2123C70.4013 31.1152 70.3527 30.9986 70.3527 30.8627C70.3527 30.7332 70.4013 30.6198 70.4984 30.5227C70.5955 30.4256 70.7153 30.377 70.8578 30.377C71.0002 30.377 71.12 30.4256 71.2172 30.5227C71.3143 30.6134 71.3629 30.7234 71.3629 30.853C71.3629 30.9954 71.3143 31.1152 71.2172 31.2123C71.12 31.3095 71.0002 31.358 70.8578 31.358ZM75.234 37.6325C74.7289 37.6325 74.2756 37.5225 73.8742 37.3023C73.4792 37.0822 73.1684 36.7746 72.9417 36.3796C72.7151 35.9781 72.6018 35.5281 72.6018 35.0295C72.6018 34.5309 72.7151 34.0841 72.9417 33.6891C73.1684 33.2941 73.4792 32.9865 73.8742 32.7664C74.2756 32.5462 74.7289 32.4362 75.234 32.4362C75.6743 32.4362 76.066 32.5236 76.4092 32.6984C76.7589 32.8668 77.0341 33.1161 77.2348 33.4463L76.72 33.796C76.5517 33.5434 76.338 33.3556 76.079 33.2326C75.82 33.1031 75.5383 33.0384 75.234 33.0384C74.8649 33.0384 74.5314 33.1225 74.2335 33.2909C73.9422 33.4528 73.7123 33.6859 73.5439 33.9902C73.382 34.2946 73.3011 34.641 73.3011 35.0295C73.3011 35.4245 73.382 35.7741 73.5439 36.0785C73.7123 36.3763 73.9422 36.6095 74.2335 36.7778C74.5314 36.9397 74.8649 37.0206 75.234 37.0206C75.5383 37.0206 75.82 36.9591 76.079 36.8361C76.338 36.7131 76.5517 36.5253 76.72 36.2727L77.2348 36.6224C77.0341 36.9526 76.7589 37.2052 76.4092 37.38C76.0596 37.5484 75.6678 37.6325 75.234 37.6325ZM79.9591 37.6325C79.5446 37.6325 79.1464 37.5743 78.7644 37.4577C78.3888 37.3347 78.0942 37.1825 77.8805 37.0012L78.1913 36.4573C78.405 36.6256 78.6737 36.7649 78.9975 36.8749C79.3212 36.9785 79.658 37.0303 80.0076 37.0303C80.4738 37.0303 80.817 36.9591 81.0372 36.8167C81.2638 36.6677 81.3771 36.4605 81.3771 36.195C81.3771 36.0073 81.3156 35.8616 81.1926 35.758C81.0696 35.6479 80.9142 35.5669 80.7264 35.5151C80.5386 35.4569 80.2893 35.4018 79.9785 35.35C79.5641 35.2723 79.2306 35.1946 78.9781 35.1169C78.7255 35.0327 78.5086 34.8935 78.3273 34.6993C78.1525 34.505 78.065 34.2363 78.065 33.8931C78.065 33.4657 78.2431 33.1161 78.5993 32.8441C78.9554 32.5721 79.4508 32.4362 80.0853 32.4362C80.4156 32.4362 80.7458 32.4815 81.076 32.5721C81.4063 32.6563 81.6782 32.7696 81.8919 32.9121L81.5908 33.4657C81.1699 33.1743 80.6681 33.0286 80.0853 33.0286C79.645 33.0286 79.3115 33.1063 79.0849 33.2617C78.8647 33.4172 78.7547 33.6211 78.7547 33.8737C78.7547 34.0679 78.8162 34.2233 78.9392 34.3399C79.0687 34.4564 79.2274 34.5438 79.4151 34.6021C79.6029 34.6539 79.8619 34.709 80.1922 34.7672C80.6001 34.8449 80.9271 34.9227 81.1732 35.0004C81.4192 35.0781 81.6297 35.2108 81.8045 35.3986C81.9793 35.5864 82.0668 35.8454 82.0668 36.1756C82.0668 36.6224 81.879 36.9785 81.5034 37.244C81.1343 37.503 80.6195 37.6325 79.9591 37.6325Z" fill="black"/>
</svg>
