<svg width="93" height="71" viewBox="0 0 93 71" fill="none" xmlns="http://www.w3.org/2000/svg">
<path d="M86.9745 32.149L60.7385 5.91302C56.9245 2.10002 51.8475 0 46.4415 0C41.0355 0 35.9585 2.10002 32.1455 5.91302L20.4005 17.657C19.9915 18.066 19.9915 18.728 20.4005 19.136C20.8095 19.545 21.4725 19.545 21.8795 19.136L33.6245 7.392C37.0425 3.975 41.5935 2.09201 46.4405 2.09201C51.2875 2.09201 55.8405 3.975 59.2585 7.392L85.4945 33.628C88.9115 37.044 90.7935 41.592 90.7935 46.435C90.7935 51.277 88.9115 55.825 85.4945 59.242L83.2855 61.451L75.9975 53.914C77.5035 51.706 78.2945 49.136 78.2945 46.425C78.2945 42.876 76.9055 39.534 74.3845 37.017L66.9315 29.552C66.5225 29.144 65.8605 29.145 65.4515 29.551C65.0425 29.96 65.0425 30.622 65.4495 31.031L72.9035 38.497C75.0295 40.619 76.2015 43.434 76.2015 46.424C76.2015 48.971 75.3745 51.369 73.8095 53.36C73.4865 53.772 73.5165 54.358 73.8795 54.734L82.5205 63.67C82.7155 63.871 82.9835 63.987 83.2635 63.989C83.2665 63.989 83.2695 63.989 83.2725 63.989C83.5495 63.989 83.8155 63.879 84.0125 63.682L86.9745 60.722C90.7875 56.91 92.8865 51.837 92.8865 46.436C92.8865 41.033 90.7875 35.96 86.9745 32.149Z" fill="white"/>
<path d="M13.6574 57.4122C10.8084 54.5642 9.24045 50.7722 9.24045 46.7362C9.24045 42.7002 10.8094 38.9092 13.6574 36.0622L20.2854 29.4342C20.6944 29.0252 20.6944 28.3632 20.2854 27.9552C19.8764 27.5462 19.2134 27.5462 18.8064 27.9552L12.1784 34.5832C8.93544 37.8252 7.14844 42.1422 7.14844 46.7372C7.14844 51.3322 8.93445 55.6482 12.1754 58.8892L16.6394 63.3922C16.8434 63.5982 17.1134 63.7022 17.3824 63.7022C17.6484 63.7022 17.9144 63.6012 18.1194 63.3992C18.5294 62.9922 18.5324 62.3312 18.1254 61.9202L13.6574 57.4122Z" fill="white"/>
<path d="M14.18 64.6799C13.772 64.6799 13.386 64.7668 13.035 64.9198L7.392 59.2418C3.975 55.8258 2.09299 51.2779 2.09299 46.4349C2.09299 41.5929 3.975 37.0449 7.392 33.6279L18.137 22.8829L21.81 26.5559C22.006 26.7519 22.273 26.8628 22.55 26.8628C22.553 26.8628 22.555 26.8628 22.557 26.8628C22.836 26.8608 23.104 26.7469 23.299 26.5469L28.4 21.3169L35.764 13.9528C41.654 8.06284 51.239 8.06284 57.131 13.9528L79.239 36.0608C82.088 38.9088 83.656 42.6989 83.656 46.7349C83.656 49.3479 82.985 51.9138 81.717 54.1568C81.432 54.6598 81.609 55.2979 82.112 55.5819C82.274 55.6739 82.451 55.7179 82.626 55.7179C82.991 55.7179 83.345 55.5268 83.537 55.1868C84.983 52.6308 85.747 49.7079 85.747 46.7349C85.747 42.1399 83.961 37.8239 80.717 34.5809L58.609 12.4729C51.902 5.76686 40.989 5.76686 34.283 12.4729L26.91 19.8458C26.908 19.8468 26.908 19.8489 26.906 19.8509C26.904 19.8529 26.901 19.8548 26.901 19.8548L22.54 24.3259L18.877 20.6629C18.469 20.2539 17.806 20.2539 17.398 20.6629L5.91199 32.1499C2.09899 35.9609 0 41.0348 0 46.4358C0 51.8368 2.09897 56.9099 5.90997 60.7199L11.551 66.3959C11.394 66.7519 11.303 67.1428 11.303 67.5568C11.303 69.1458 12.591 70.4339 14.18 70.4339C15.769 70.4339 17.057 69.1458 17.057 67.5568C17.057 65.9678 15.769 64.6799 14.18 64.6799ZM14.18 69.0048C13.381 69.0048 12.732 68.3568 12.732 67.5568C12.732 66.7568 13.381 66.1088 14.18 66.1088C14.98 66.1088 15.628 66.7568 15.628 67.5568C15.628 68.3568 14.98 69.0048 14.18 69.0048Z" fill="white"/>
<path d="M78.6607 64.6783C78.2507 64.6783 77.8637 64.7663 77.5107 64.9213L66.6787 54.0623L69.6357 51.1053C70.8877 49.8503 71.5778 48.1873 71.5778 46.4233C71.5778 44.6703 70.8877 43.0173 69.6367 41.7693L62.1607 34.2803L60.0338 32.0983L63.9048 27.9493C64.2898 27.5363 64.2787 26.8953 63.8807 26.4963L55.8597 18.4613C53.3157 15.9523 49.9727 14.5703 46.4457 14.5703C42.8987 14.5703 39.5558 15.9593 37.0338 18.4823L18.5147 37.0023C15.9867 39.5143 14.5938 42.8643 14.5938 46.4323C14.5928 49.4573 15.5748 52.3013 17.4318 54.6553C17.4588 54.6893 17.4878 54.7213 17.5178 54.7523L22.3037 59.4783C22.7137 59.8843 23.3738 59.8793 23.7798 59.4723L28.4348 54.7983C28.8428 54.3883 28.8417 53.7273 28.4337 53.3203L24.7278 49.6183C23.8758 48.7713 23.4067 47.6403 23.4067 46.4353C23.4067 45.2303 23.8778 44.0983 24.7368 43.2453L43.2638 24.7163C44.9548 23.0323 47.9398 23.0323 49.6458 24.7123L54.8997 29.9803C55.3077 30.3903 55.9708 30.3903 56.3788 29.9823C56.7888 29.5743 56.7897 28.9113 56.3807 28.5033L51.1208 23.2293C48.5768 20.7223 44.3027 20.7253 41.7857 23.2363L23.2597 41.7633C22.0047 43.0093 21.3148 44.6683 21.3148 46.4363C21.3148 48.2023 22.0028 49.8593 23.2508 51.1013L26.2158 54.0643L23.0317 57.2603L19.0348 53.3133C17.4978 51.3413 16.6848 48.9653 16.6848 46.4363C16.6858 43.4283 17.8588 40.6073 19.9908 38.4873L38.5128 19.9653C40.6398 17.8383 43.4577 16.6663 46.4457 16.6663C49.4197 16.6663 52.2407 17.8343 54.3847 19.9483L61.6858 27.2633L57.8228 31.4023C57.4418 31.8113 57.4487 32.4463 57.8387 32.8473L68.1567 43.2523C69.0137 44.1073 69.4847 45.2343 69.4847 46.4273C69.4847 47.6343 69.0128 48.7723 68.1548 49.6313L64.4597 53.3263C64.0517 53.7343 64.0507 54.3963 64.4587 54.8043L76.0308 66.4033C75.8748 66.7573 75.7848 67.1473 75.7848 67.5593C75.7848 69.1483 77.0727 70.4363 78.6617 70.4363C80.2507 70.4363 81.5388 69.1483 81.5388 67.5593C81.5388 65.9703 80.2497 64.6783 78.6607 64.6783ZM78.6607 69.0033C77.8607 69.0033 77.2127 68.3553 77.2127 67.5553C77.2127 66.7553 77.8607 66.1073 78.6607 66.1073C79.4607 66.1073 80.1088 66.7553 80.1088 67.5553C80.1088 68.3553 79.4607 69.0033 78.6607 69.0033Z" fill="white"/>
</svg>
